# xmcd CD database file
#
# Track frame offsets:
#	150
#	10154
#	26230
#	44205
#	56655
#	68320
#	81558
#	94238
#	107003
#	116753
#
# Disc length: 1822 seconds
#
# Revision: 0
# Processed by: cddbd v1.5.1PL0 Copyright (c) Steve Scherf et al.
# Submitted via: CDex 1.51
#
DISCID=88071c0a
DTITLE=John Lee Hooker - Want-ad Blues Vol. 3
DYEAR=1900
DGENRE=Blues
TTITLE0=Want-ad Blues
TTITLE1=My First Wife Left Me
TTITLE2=Wednesday Evening Blues
TTITLE3='Frisco
TTITLE4=Little Wheel
TTITLE5=Every Night
TTITLE6=Take A Look At Yourself
TTITLE7=She Shot Me Down
TTITLE8=No One Told Me
TTITLE9=Mighty Fire
EXTD=
EXTT0=
EXTT1=
EXTT2=
EXTT3=
EXTT4=
EXTT5=
EXTT6=
EXTT7=
EXTT8=
EXTT9=
PLAYORDER=
